<?xml version="1.0" encoding="utf-8"?>
<!-- Generator: Adobe Illustrator 19.2.1, SVG Export Plug-In . SVG Version: 6.00 Build 0)  -->
<svg version="1.1" id="Layer_1" xmlns="http://www.w3.org/2000/svg" xmlns:xlink="http://www.w3.org/1999/xlink" x="0px" y="0px"
	 viewBox="0 0 960 560" style="enable-background:new 0 0 960 560;" xml:space="preserve">
<style type="text/css">
	.st0{fill:none;stroke:#000000;stroke-miterlimit:10;}
</style>
<polygon class="st0" points="249.5,102.5 249.5,135.5 137.5,135.5 137.5,229.5 241,229.5 242,258.5 137.5,258.5 137.5,391.5 
	100.5,391.5 100.5,102.5 "/>
<polygon class="st0" points="523.5,391.5 523.5,102 556.5,102.5 556.5,247 667,102.5 711,102.5 611,226 721,391 678,391.5 
	584.8,247 557.5,280 557.5,391.5 "/>
<polygon class="st0" points="894.5,103.5 894.5,131.5 781.5,131.5 781.5,224.5 888.5,224.5 888.5,255.5 780.5,255.5 780.5,361.5 
	900.5,361.5 900.5,391.5 746.5,391.5 746.5,103.5 "/>
<path class="st0" d="M388,103.5h-45L250,392l37-0.3l29-91.3h98l29,92h40L388,103.5z M322,271.5l44.5-138l38.5,138H322z"/>
</svg>
